<svg viewBox="0 0 640 320" role="img" xmlns="http://www.w3.org/2000/svg" font-family="-apple-system, system-ui, sans-serif"><title>条件概率：缩小样本空间并重新归一</title><defs><marker id="arrow" viewBox="0 0 10 10" refX="9" refY="5" markerWidth="8" markerHeight="8" orient="auto-start-reverse"><path d="M0 0L10 5L0 10z" fill="#1f2937"/></marker></defs><text x="180" y="28" text-anchor="middle" font-size="14" fill="#1f2937" font-weight="600">原样本空间 Ω</text><g font-size="14" fill="#1f2937"><rect x="24" y="70" width="44" height="44" rx="6" fill="#eff6ff" stroke="#94a3b8" stroke-width="1"/><text x="46" y="98" text-anchor="middle">1</text><text x="46" y="132" text-anchor="middle" font-size="11" fill="#64748b">1/6</text><rect x="76" y="70" width="44" height="44" rx="6" fill="#eff6ff" stroke="#2563eb" stroke-width="2" stroke-dasharray="4 3"/><text x="98" y="98" text-anchor="middle" fill="#2563eb">2</text><text x="98" y="132" text-anchor="middle" font-size="11" fill="#64748b">1/6</text><rect x="128" y="70" width="44" height="44" rx="6" fill="#eff6ff" stroke="#94a3b8" stroke-width="1"/><text x="150" y="98" text-anchor="middle">3</text><text x="150" y="132" text-anchor="middle" font-size="11" fill="#64748b">1/6</text><rect x="180" y="70" width="44" height="44" rx="6" fill="#eff6ff" stroke="#2563eb" stroke-width="2" stroke-dasharray="4 3"/><text x="202" y="98" text-anchor="middle" fill="#2563eb">4</text><text x="202" y="132" text-anchor="middle" font-size="11" fill="#64748b">1/6</text><rect x="232" y="70" width="44" height="44" rx="6" fill="#eff6ff" stroke="#94a3b8" stroke-width="1"/><text x="254" y="98" text-anchor="middle">5</text><text x="254" y="132" text-anchor="middle" font-size="11" fill="#64748b">1/6</text><rect x="284" y="70" width="44" height="44" rx="6" fill="#fef3c7" stroke="#2563eb" stroke-width="2" stroke-dasharray="4 3"/><rect x="287.5" y="73.5" width="37" height="37" rx="4" fill="none" stroke="#d97706" stroke-width="2"/><text x="306" y="98" text-anchor="middle" fill="#d97706" font-weight="600">6</text><text x="306" y="132" text-anchor="middle" font-size="11" fill="#d97706">1/6</text></g><g font-size="12"><rect x="76" y="158" width="10" height="10" rx="2" fill="#eff6ff" stroke="#2563eb" stroke-width="2" stroke-dasharray="4 3"/><text x="92" y="167" font-size="12" fill="#2563eb">B（偶数）= {2,4,6}</text><rect x="76" y="178" width="10" height="10" rx="2" fill="#fef3c7" stroke="#d97706" stroke-width="2"/><text x="92" y="187" font-size="12" fill="#d97706">A = {6}，A∩B = {6}</text></g><text x="76" y="212" font-size="12" fill="#1f2937">P(A) = P(6) = 1/6</text><g><line x1="350" y1="92" x2="412" y2="92" stroke="#1f2937" stroke-width="2" marker-end="url(#arrow)"/><text x="381" y="80" text-anchor="middle" font-size="11" fill="#1f2937">缩小到 B 内</text><text x="381" y="112" text-anchor="middle" font-size="11" fill="#1f2937">+ 重新归一</text></g><text x="535" y="28" text-anchor="middle" font-size="14" fill="#1f2937" font-weight="600">已知 B：缩小并重新归一</text><rect x="433" y="60" width="204" height="62" rx="10" fill="none" stroke="#2563eb" stroke-width="1" stroke-dasharray="4 3"/><text x="535" y="52" text-anchor="middle" font-size="12" fill="#2563eb">新全世界 = {2,4,6}</text><g font-size="14" fill="#1f2937"><rect x="447" y="70" width="44" height="44" rx="6" fill="#eff6ff" stroke="#94a3b8" stroke-width="1"/><text x="469" y="97" text-anchor="middle">2</text><text x="469" y="134" text-anchor="middle" font-size="11" fill="#64748b">1/3</text><rect x="513" y="70" width="44" height="44" rx="6" fill="#eff6ff" stroke="#94a3b8" stroke-width="1"/><text x="535" y="97" text-anchor="middle">4</text><text x="535" y="134" text-anchor="middle" font-size="11" fill="#64748b">1/3</text><rect x="579" y="70" width="44" height="44" rx="6" fill="#fef3c7" stroke="#d97706" stroke-width="2"/><text x="601" y="97" text-anchor="middle" fill="#d97706" font-weight="600">6</text><text x="601" y="134" text-anchor="middle" font-size="11" fill="#d97706">1/3</text></g><text x="535" y="168" text-anchor="middle" font-size="12" fill="#d97706" font-weight="600">P(A|B) = 1/3</text><text x="535" y="188" text-anchor="middle" font-size="11" fill="#1f2937">= (1/6) / (3/6)</text></svg>